<svg xmlns="http://www.w3.org/2000/svg" viewBox="47 152 500 500"><defs><style>.cls-1{opacity:0.62;}.cls-2,.cls-4,.cls-7,.cls-9{fill:none;}.cls-2,.cls-6,.cls-8,.cls-9{stroke:#fff;}.cls-2,.cls-3,.cls-4,.cls-6,.cls-7,.cls-8,.cls-9{stroke-miterlimit:10;}.cls-2,.cls-7{stroke-width:2px;}.cls-3{fill:#1d1d1b;}.cls-3,.cls-4,.cls-7{stroke:#1d1d1b;}.cls-5,.cls-6{fill:#ffcc03;}.cls-6,.cls-8,.cls-9{stroke-width:5px;}.cls-8{fill:#fff;}</style></defs><g id="gold" class="cls-1"><line class="cls-2" x1="337.9" y1="592.76" x2="231.01" y2="646.55"/><line class="cls-2" x1="128.32" y1="594.9" x2="232.07" y2="646.61"/></g><g id="Layer_2" data-name="Layer 2"><line class="cls-3" x1="362.65" y1="233.6" x2="362.41" y2="233.48"/><line class="cls-4" x1="74.41" y1="380.09" x2="362.65" y2="233.6"/><line class="cls-4" x1="516.92" y1="480.68" x2="338.32" y2="572.74"/><ellipse class="cls-4" cx="385.84" cy="302.42" rx="49.79" ry="28.66"/><ellipse class="cls-4" cx="300.98" cy="347.92" rx="49.79" ry="28.66"/></g><g id="black2"><polygon class="cls-3" points="526.4 328.38 526.4 475.79 338.32 572.74 338.32 424.21 526.4 328.38"/><polygon class="cls-3" points="128.32 426.96 129 573.85 64.45 541.08 64.45 394 128.32 426.96"/></g><g id="Layer_9" data-name="Layer 9"><polygon class="cls-5" points="338.32 440.3 232.35 428.62 128.32 440.3 128.32 594.9 231.01 646.55 338.24 592.76 338.32 440.3"/><path class="cls-6" d="M335.12,444.66a19.22,19.22,0,0,0,3.2-10.41c0-16.84-23.93-30.48-53.45-30.48-25.26,0-48.77,13.37-52.52,24.85"/><line class="cls-7" x1="64.45" y1="540.13" x2="126.03" y2="572.34"/><line class="cls-3" x1="362.66" y1="233.6" x2="362.65" y2="233.6"/><path class="cls-3" d="M362.65,233.6,74.41,380.09l54.29,27.43c6.68-12.51,26.75-20.95,51-20.95,26.23,0,48.07,10.72,52.71,24.86,4.63-14.14,26.47-24.86,52.7-24.86,22.89,0,42.43,8.38,50.12,19.86l185-92ZM301,376.59c-27.5,0-49.79-12.83-49.79-28.67s22.29-28.66,49.79-28.66,49.78,12.83,49.78,28.66S328.48,376.59,301,376.59Zm84.85-45.51c-27.5,0-49.79-12.83-49.79-28.66s22.29-28.66,49.79-28.66,49.78,12.83,49.78,28.66S413.33,331.08,385.84,331.08Z"/><line class="cls-4" x1="516.92" y1="480.68" x2="338.32" y2="572.74"/><path class="cls-6" d="M132.12,444.66A19.65,19.65,0,0,1,129,434.25c0-16.84,23.34-30.48,52.13-30.48,24.64,0,47.57,13.37,51.22,24.85"/><line class="cls-8" x1="335.12" y1="444.66" x2="230.69" y2="498.09"/><line class="cls-8" x1="132.12" y1="444.66" x2="230.69" y2="498.09"/><line class="cls-8" x1="230.69" y1="498.09" x2="230.69" y2="650.43"/><line class="cls-9" x1="129" y1="437.25" x2="129" y2="600.64"/><line class="cls-9" x1="338.24" y1="435.59" x2="338.24" y2="599.36"/></g></svg>