<svg xmlns="http://www.w3.org/2000/svg" viewBox="47 152 500 500"><defs><style>.cls-1{opacity:0.62;}.cls-2{fill:#ffcc03;}.cls-3,.cls-4{fill:none;}.cls-3,.cls-4,.cls-5{stroke:#1d1d1b;stroke-miterlimit:10;}.cls-4{stroke-width:2px;}.cls-5{fill:#1d1d1b;}</style></defs><g id="gold" class="cls-1"><polygon class="cls-2" points="182.23 413.32 181.97 565.35 172.02 570.08 145.57 582.26 146.49 551.49 145.57 435.6 157.59 422.12 182.23 413.32"/><polygon class="cls-2" points="304.51 560.24 292.02 552.86 261.45 552 260.51 519.33 260.51 519.32 261.45 400.3 288.13 413.38 304.51 560.24"/><polygon class="cls-2" points="338.32 424.21 338.32 572.74 320.03 567.07 295.82 569.66 261.45 552 261.45 400.3 288.13 413.38 320.54 415.03 338.32 424.21"/></g><g id="Layer_2" data-name="Layer 2"><line class="cls-3" x1="64.45" y1="540.47" x2="64.45" y2="393.06"/><line class="cls-3" x1="64.45" y1="540.13" x2="64.45" y2="392.72"/><line class="cls-3" x1="64.45" y1="540.13" x2="145.57" y2="582.26"/><line class="cls-3" x1="362.41" y1="233.48" x2="520.19" y2="314.42"/><line class="cls-3" x1="74.41" y1="380.09" x2="157.59" y2="422.12"/><line class="cls-3" x1="74.41" y1="380.09" x2="362.65" y2="233.6"/><line class="cls-3" x1="516.92" y1="480.68" x2="338.32" y2="572.74"/><path class="cls-4" d="M182,506.91c8.6-4.09,19.64-6.55,31.67-6.55,22.26,0,41.1,8.41,47.48,20"/><ellipse class="cls-3" cx="385.84" cy="302.42" rx="49.79" ry="28.66"/><path class="cls-3" d="M182.23,413.32c-10.92-5.25-17.87-13.16-17.87-22,0-15.83,22.29-28.66,49.78-28.66s49.79,12.83,49.79,28.66a17.72,17.72,0,0,1-2.24,8.52"/><ellipse class="cls-3" cx="300.98" cy="347.92" rx="49.79" ry="28.66"/><line class="cls-4" x1="261.72" y1="399.79" x2="261.72" y2="551.49"/></g><g id="Layer_3" data-name="Layer 3"><line class="cls-3" x1="288.13" y1="413.38" x2="261.69" y2="399.84"/><line class="cls-3" x1="320.54" y1="415.03" x2="288.13" y2="413.38"/><line class="cls-4" x1="338.32" y1="424.21" x2="320.54" y2="415.03"/><line class="cls-4" x1="261.72" y1="551.49" x2="295.82" y2="569.66"/><line class="cls-4" x1="182.23" y1="413.32" x2="182.23" y2="565.48"/><line class="cls-4" x1="182.23" y1="413.32" x2="157.59" y2="422.12"/><line class="cls-4" x1="182.23" y1="565.48" x2="145.62" y2="581.97"/><line class="cls-4" x1="320.03" y1="567.07" x2="338.32" y2="572.74"/><line class="cls-4" x1="295.82" y1="569.66" x2="320.03" y2="567.07"/></g><g id="black2"><polygon class="cls-5" points="526.4 328.38 526.4 475.79 338.32 572.74 338.32 424.21 526.4 328.38"/><polygon class="cls-5" points="145.14 436.46 145.57 582.26 64.45 541.08 64.45 394 145.14 436.46"/></g><g id="Layer_9" data-name="Layer 9"><line class="cls-3" x1="64.45" y1="540.47" x2="64.45" y2="393.06"/><line class="cls-4" x1="64.45" y1="540.13" x2="64.45" y2="392.72"/><line class="cls-4" x1="64.45" y1="393.06" x2="145.57" y2="435.6"/><line class="cls-4" x1="64.45" y1="540.13" x2="145.57" y2="582.26"/><line class="cls-3" x1="74.41" y1="380.09" x2="157.59" y2="422.12"/><line class="cls-3" x1="74.41" y1="380.09" x2="362.65" y2="233.6"/><line class="cls-3" x1="320.54" y1="415.03" x2="520.19" y2="314.42"/><line class="cls-3" x1="516.92" y1="480.68" x2="338.32" y2="572.74"/><path class="cls-4" d="M182,506.91c8.6-4.09,19.64-6.55,31.67-6.55,22.26,0,41.1,8.41,47.48,20"/><ellipse class="cls-3" cx="385.84" cy="302.42" rx="49.79" ry="28.66"/><path class="cls-3" d="M182.23,413.32c-10.92-5.25-17.87-13.16-17.87-22,0-15.83,22.29-28.66,49.78-28.66s49.79,12.83,49.79,28.66a17.72,17.72,0,0,1-2.24,8.52"/><ellipse class="cls-3" cx="300.98" cy="347.92" rx="49.79" ry="28.66"/><line class="cls-4" x1="261.72" y1="399.79" x2="261.72" y2="551.49"/><line class="cls-3" x1="288.13" y1="413.38" x2="261.69" y2="399.84"/><line class="cls-3" x1="320.54" y1="415.03" x2="288.13" y2="413.38"/><line class="cls-4" x1="261.72" y1="551.49" x2="295.82" y2="569.66"/><line class="cls-4" x1="145.57" y1="435.6" x2="145.57" y2="582.26"/><line class="cls-4" x1="288.13" y1="413.38" x2="295.82" y2="569.66"/><line class="cls-4" x1="182.23" y1="413.32" x2="182.23" y2="565.48"/><line class="cls-4" x1="182.23" y1="413.32" x2="157.59" y2="422.12"/><line class="cls-4" x1="145.57" y1="435.6" x2="157.59" y2="422.12"/><line class="cls-4" x1="182.23" y1="565.48" x2="145.62" y2="581.97"/><line class="cls-4" x1="320.03" y1="567.07" x2="338.32" y2="572.74"/><line class="cls-4" x1="295.82" y1="569.66" x2="320.03" y2="567.07"/><polygon class="cls-5" points="526.4 328.38 526.4 475.79 338.32 572.74 338.32 424.21 526.4 328.38"/></g><g id="Layer_10" data-name="Layer 10"><line class="cls-5" x1="362.65" y1="233.6" x2="362.41" y2="233.48"/><line class="cls-5" x1="362.66" y1="233.6" x2="362.65" y2="233.6"/><path class="cls-5" d="M362.65,233.6,74.41,380.09l83.18,42,24.65-8.8c-10.93-5.25-17.88-13.16-17.88-22,0-15.83,22.29-28.66,49.79-28.66s49.78,12.83,49.78,28.66a17.82,17.82,0,0,1-2.23,8.52l26.43,13.54L320.55,415,520.19,314.42ZM301,376.59c-27.5,0-49.79-12.83-49.79-28.67s22.29-28.66,49.79-28.66,49.78,12.83,49.78,28.66S328.48,376.59,301,376.59Zm84.85-45.51c-27.5,0-49.79-12.83-49.79-28.66s22.29-28.66,49.79-28.66,49.79,12.83,49.79,28.66S413.33,331.08,385.84,331.08Z"/></g></svg>